<svg width="256" height="256" viewBox="0 0 256 256" xmlns="http://www.w3.org/2000/svg">
<g transform="translate(128, 128)">
  <circle cx="0" cy="0" r="120" fill="#111" stroke="#333" stroke-width="3"/>
  <circle cx="0" cy="0" r="116" fill="#0a0a0a"/>
  <circle cx="0" cy="0" r="32"  fill="none" stroke="#2e2e2e" stroke-width="1.2"/>
  <circle cx="0" cy="0" r="64"  fill="none" stroke="#2e2e2e" stroke-width="1.2"/>
  <circle cx="0" cy="0" r="96"  fill="none" stroke="#2e2e2e" stroke-width="1.2"/>
  <circle cx="0" cy="0" r="116" fill="none" stroke="#2e2e2e" stroke-width="1.2"/>
  <line x1="-116" y1="0"    x2="116"  y2="0"    stroke="#2e2e2e" stroke-width="1.2"/>
  <line x1="0"    y1="-116" x2="0"    y2="116"  stroke="#2e2e2e" stroke-width="1.2"/>
  <path d="M 0,0 L 116,0 A 116,116 0 0,0 82,-82 Z"  fill="#f5a623" opacity="0.10"/>
  <path d="M 0,0 L 82,-82 A 116,116 0 0,0 0,-116 Z" fill="#f5a623" opacity="0.06"/>
  <line x1="0" y1="0" x2="112" y2="0" stroke="#f5a623" stroke-width="2.5" stroke-linecap="round"/>
  <circle cx="52"  cy="-26" r="5"   fill="#f5a623"/>
  <circle cx="52"  cy="-26" r="10"  fill="none" stroke="#f5a623" stroke-width="1.5" opacity="0.4"/>
  <circle cx="-36" cy="44"  r="3.5" fill="#f5a623" opacity="0.8"/>
  <circle cx="70"  cy="35"  r="3"   fill="#f5a623" opacity="0.6"/>
  <circle cx="-60" cy="-30" r="2.5" fill="#f5a623" opacity="0.45"/>
  <circle cx="0" cy="0" r="5"   fill="#f5a623"/>
  <circle cx="0" cy="0" r="2.5" fill="#fff"/>
  <line x1="0"    y1="-116" x2="0"    y2="-124" stroke="#444" stroke-width="2"/>
  <line x1="116"  y1="0"    x2="124"  y2="0"    stroke="#444" stroke-width="2"/>
  <line x1="0"    y1="116"  x2="0"    y2="124"  stroke="#444" stroke-width="2"/>
  <line x1="-116" y1="0"    x2="-124" y2="0"    stroke="#444" stroke-width="2"/>
</g>
</svg>