<svg width="280" height="280" viewBox="0 0 280 280" xmlns="http://www.w3.org/2000/svg">
<defs>
  <radialGradient id="screengrad" cx="50%" cy="50%" r="50%">
    <stop offset="0%"   stop-color="#0d0d0d"/>
    <stop offset="100%" stop-color="#050505"/>
  </radialGradient>
</defs>

<g transform="translate(140, 140)">

  <circle cx="0" cy="0" r="130" fill="#111" stroke="#2a2a2a" stroke-width="4"/>
  <circle cx="0" cy="0" r="126" fill="#0a0a0a" stroke="#1a1a1a" stroke-width="1"/>
  <circle cx="0" cy="0" r="112" fill="url(#screengrad)"/>

  <circle cx="0" cy="0" r="28"  fill="none" stroke="#2a2a2a" stroke-width="1"/>
  <circle cx="0" cy="0" r="56"  fill="none" stroke="#2a2a2a" stroke-width="1"/>
  <circle cx="0" cy="0" r="84"  fill="none" stroke="#2a2a2a" stroke-width="1"/>
  <circle cx="0" cy="0" r="112" fill="none" stroke="#2a2a2a" stroke-width="1"/>

  <line x1="-112" y1="0"    x2="112"  y2="0"    stroke="#2a2a2a" stroke-width="1"/>
  <line x1="0"    y1="-112" x2="0"    y2="112"  stroke="#2a2a2a" stroke-width="1"/>
  <line x1="-80"  y1="-80"  x2="80"   y2="80"   stroke="#222" stroke-width="0.7"/>
  <line x1="80"   y1="-80"  x2="-80"  y2="80"   stroke="#222" stroke-width="0.7"/>

  <path d="M 0,0 L 112,0 A 112,112 0 0,0 79,-79 Z"   fill="#f5a623" opacity="0.08"/>
  <path d="M 0,0 L 79,-79 A 112,112 0 0,0 0,-112 Z"  fill="#f5a623" opacity="0.05"/>
  <path d="M 0,0 L 0,-112 A 112,112 0 0,0 -56,-97 Z" fill="#f5a623" opacity="0.02"/>

  <line x1="0" y1="0" x2="108" y2="0" stroke="#f5a623" stroke-width="2" stroke-linecap="round" opacity="0.95"/>

  <circle cx="60"  cy="-30" r="3.5" fill="#f5a623" opacity="0.95"/>
  <circle cx="60"  cy="-30" r="8"   fill="none" stroke="#f5a623" stroke-width="1.2" opacity="0.45"/>

  <circle cx="-40" cy="50"  r="2.5" fill="#f5a623" opacity="0.75"/>
  <circle cx="-40" cy="50"  r="6"   fill="none" stroke="#f5a623" stroke-width="0.9" opacity="0.3"/>

  <circle cx="80"  cy="40"  r="2"   fill="#f5a623" opacity="0.55"/>
  <circle cx="-70" cy="-35" r="2"   fill="#f5a623" opacity="0.4"/>
  <circle cx="30"  cy="80"  r="1.5" fill="#f5a623" opacity="0.3"/>

  <circle cx="0" cy="0" r="4" fill="#f5a623"/>
  <circle cx="0" cy="0" r="2" fill="#fff" opacity="0.9"/>

  <line x1="0"    y1="-112" x2="0"    y2="-121" stroke="#444" stroke-width="1.5"/>
  <line x1="112"  y1="0"    x2="121"  y2="0"    stroke="#444" stroke-width="1.5"/>
  <line x1="0"    y1="112"  x2="0"    y2="121"  stroke="#444" stroke-width="1.5"/>
  <line x1="-112" y1="0"    x2="-121" y2="0"    stroke="#444" stroke-width="1.5"/>

  <line x1="79"  y1="-79" x2="84"  y2="-84" stroke="#333" stroke-width="1"/>
  <line x1="-79" y1="-79" x2="-84" y2="-84" stroke="#333" stroke-width="1"/>
  <line x1="79"  y1="79"  x2="84"  y2="84"  stroke="#333" stroke-width="1"/>
  <line x1="-79" y1="79"  x2="-84" y2="84"  stroke="#333" stroke-width="1"/>

</g>
</svg>